<mxfile host="app.diagrams.net" modified="2024-01-24T01:20:28.679Z" agent="Mozilla/5.0 (X11; Linux x86_64; rv:121.0) Gecko/20100101 Firefox/121.0" etag="P0o0W0jZgGo7qEQv7eo4" version="23.0.0" type="github">
  <diagram name="Página-1" id="UWQp2IXuRLh23y3QDyzC">
    <mxGraphModel dx="1886" dy="824" grid="1" gridSize="10" guides="1" tooltips="1" connect="1" arrows="1" fold="1" page="1" pageScale="1" pageWidth="827" pageHeight="1169" math="0" shadow="0">
      <root>
        <mxCell id="0" />
        <mxCell id="1" parent="0" />
        <mxCell id="z2o4I-8k37QD76k9BRlW-76" value="Private subnet" style="points=[[0,0],[0.25,0],[0.5,0],[0.75,0],[1,0],[1,0.25],[1,0.5],[1,0.75],[1,1],[0.75,1],[0.5,1],[0.25,1],[0,1],[0,0.75],[0,0.5],[0,0.25]];outlineConnect=0;gradientColor=none;html=1;whiteSpace=wrap;fontSize=12;fontStyle=0;container=1;pointerEvents=0;collapsible=0;recursiveResize=0;shape=mxgraph.aws4.group;grIcon=mxgraph.aws4.group_security_group;grStroke=0;strokeColor=#00A4A6;fillColor=#E6F6F7;verticalAlign=top;align=left;spacingLeft=30;fontColor=#147EBA;dashed=0;" vertex="1" parent="1">
          <mxGeometry x="970" y="184" width="250" height="176" as="geometry" />
        </mxCell>
        <mxCell id="z2o4I-8k37QD76k9BRlW-8" value="" style="rounded=0;whiteSpace=wrap;html=1;" vertex="1" parent="1">
          <mxGeometry x="120" y="70" width="1310" height="770" as="geometry" />
        </mxCell>
        <mxCell id="z2o4I-8k37QD76k9BRlW-17" style="edgeStyle=orthogonalEdgeStyle;rounded=0;orthogonalLoop=1;jettySize=auto;html=1;dashed=1;backgroundOutline=0;flowAnimation=1;" edge="1" parent="1" source="z2o4I-8k37QD76k9BRlW-1" target="z2o4I-8k37QD76k9BRlW-3">
          <mxGeometry relative="1" as="geometry" />
        </mxCell>
        <mxCell id="z2o4I-8k37QD76k9BRlW-1" value="" style="image;aspect=fixed;perimeter=ellipsePerimeter;html=1;align=center;shadow=0;dashed=0;spacingTop=3;image=img/lib/active_directory/users.svg;" vertex="1" parent="1">
          <mxGeometry x="10" y="134" width="59.4" height="90" as="geometry" />
        </mxCell>
        <mxCell id="z2o4I-8k37QD76k9BRlW-18" style="edgeStyle=orthogonalEdgeStyle;rounded=0;orthogonalLoop=1;jettySize=auto;html=1;exitX=0.5;exitY=1;exitDx=0;exitDy=0;exitPerimeter=0;dashed=1;backgroundOutline=0;flowAnimation=1;" edge="1" parent="1" source="z2o4I-8k37QD76k9BRlW-3" target="z2o4I-8k37QD76k9BRlW-4">
          <mxGeometry relative="1" as="geometry" />
        </mxCell>
        <mxCell id="z2o4I-8k37QD76k9BRlW-3" value="" style="sketch=0;points=[[0,0,0],[0.25,0,0],[0.5,0,0],[0.75,0,0],[1,0,0],[0,1,0],[0.25,1,0],[0.5,1,0],[0.75,1,0],[1,1,0],[0,0.25,0],[0,0.5,0],[0,0.75,0],[1,0.25,0],[1,0.5,0],[1,0.75,0]];outlineConnect=0;fontColor=#232F3E;fillColor=#8C4FFF;strokeColor=#ffffff;dashed=0;verticalLabelPosition=bottom;verticalAlign=top;align=center;html=1;fontSize=12;fontStyle=0;aspect=fixed;shape=mxgraph.aws4.resourceIcon;resIcon=mxgraph.aws4.route_53;" vertex="1" parent="1">
          <mxGeometry x="180" y="140" width="78" height="78" as="geometry" />
        </mxCell>
        <mxCell id="z2o4I-8k37QD76k9BRlW-4" value="" style="sketch=0;points=[[0,0,0],[0.25,0,0],[0.5,0,0],[0.75,0,0],[1,0,0],[0,1,0],[0.25,1,0],[0.5,1,0],[0.75,1,0],[1,1,0],[0,0.25,0],[0,0.5,0],[0,0.75,0],[1,0.25,0],[1,0.5,0],[1,0.75,0]];outlineConnect=0;fontColor=#232F3E;fillColor=#8C4FFF;strokeColor=#ffffff;dashed=0;verticalLabelPosition=bottom;verticalAlign=top;align=center;html=1;fontSize=12;fontStyle=0;aspect=fixed;shape=mxgraph.aws4.resourceIcon;resIcon=mxgraph.aws4.cloudfront;" vertex="1" parent="1">
          <mxGeometry x="180" y="432" width="78" height="78" as="geometry" />
        </mxCell>
        <mxCell id="z2o4I-8k37QD76k9BRlW-9" value="" style="rounded=0;whiteSpace=wrap;html=1;dashed=1;" vertex="1" parent="1">
          <mxGeometry x="330" y="90" width="1090" height="720" as="geometry" />
        </mxCell>
        <mxCell id="z2o4I-8k37QD76k9BRlW-13" value="Amazon S3" style="sketch=0;outlineConnect=0;strokeColor=#009900;fillColor=#d5e8d4;dashed=0;verticalLabelPosition=middle;verticalAlign=bottom;align=center;html=1;whiteSpace=wrap;fontSize=10;fontStyle=1;spacing=3;shape=mxgraph.aws4.productIcon;prIcon=mxgraph.aws4.s3;" vertex="1" parent="1">
          <mxGeometry x="390" y="560" width="120" height="150" as="geometry" />
        </mxCell>
        <mxCell id="z2o4I-8k37QD76k9BRlW-14" value="&lt;div&gt;Route 53&lt;/div&gt;" style="text;html=1;strokeColor=none;fillColor=none;align=center;verticalAlign=middle;whiteSpace=wrap;rounded=0;" vertex="1" parent="1">
          <mxGeometry x="166" y="100" width="106" height="50" as="geometry" />
        </mxCell>
        <mxCell id="z2o4I-8k37QD76k9BRlW-15" value="CloudFront" style="text;html=1;strokeColor=none;fillColor=none;align=center;verticalAlign=middle;whiteSpace=wrap;rounded=0;" vertex="1" parent="1">
          <mxGeometry x="166" y="510" width="106" height="50" as="geometry" />
        </mxCell>
        <mxCell id="z2o4I-8k37QD76k9BRlW-16" value="&lt;div&gt;Usuários&lt;/div&gt;&lt;div&gt;da Internet&lt;br&gt;&lt;/div&gt;" style="text;html=1;strokeColor=none;fillColor=none;align=center;verticalAlign=middle;whiteSpace=wrap;rounded=0;" vertex="1" parent="1">
          <mxGeometry y="250" width="106" height="50" as="geometry" />
        </mxCell>
        <mxCell id="z2o4I-8k37QD76k9BRlW-19" style="edgeStyle=orthogonalEdgeStyle;rounded=0;orthogonalLoop=1;jettySize=auto;html=1;dashed=1;backgroundOutline=0;flowAnimation=1;" edge="1" parent="1" source="z2o4I-8k37QD76k9BRlW-4" target="z2o4I-8k37QD76k9BRlW-13">
          <mxGeometry relative="1" as="geometry" />
        </mxCell>
        <mxCell id="z2o4I-8k37QD76k9BRlW-20" value="" style="sketch=0;outlineConnect=0;fontColor=#232F3E;gradientColor=none;fillColor=#8C4FFF;strokeColor=none;dashed=0;verticalLabelPosition=bottom;verticalAlign=top;align=center;html=1;fontSize=12;fontStyle=0;aspect=fixed;pointerEvents=1;shape=mxgraph.aws4.application_load_balancer;" vertex="1" parent="1">
          <mxGeometry x="630" y="413" width="78" height="78" as="geometry" />
        </mxCell>
        <mxCell id="z2o4I-8k37QD76k9BRlW-22" style="edgeStyle=orthogonalEdgeStyle;rounded=0;orthogonalLoop=1;jettySize=auto;html=1;exitX=1;exitY=0.25;exitDx=0;exitDy=0;exitPerimeter=0;dashed=1;backgroundOutline=0;flowAnimation=1;" edge="1" parent="1" source="z2o4I-8k37QD76k9BRlW-4" target="z2o4I-8k37QD76k9BRlW-20">
          <mxGeometry relative="1" as="geometry" />
        </mxCell>
        <mxCell id="z2o4I-8k37QD76k9BRlW-24" value="" style="rounded=0;whiteSpace=wrap;html=1;dashed=1;dashPattern=1 1;" vertex="1" parent="1">
          <mxGeometry x="610" y="150" width="640" height="220" as="geometry" />
        </mxCell>
        <mxCell id="z2o4I-8k37QD76k9BRlW-25" value="" style="rounded=0;whiteSpace=wrap;html=1;dashed=1;dashPattern=1 1;" vertex="1" parent="1">
          <mxGeometry x="613" y="540" width="637" height="220" as="geometry" />
        </mxCell>
        <mxCell id="z2o4I-8k37QD76k9BRlW-12" value="" style="rounded=1;whiteSpace=wrap;html=1;dashed=1;fillStyle=hatch;dashPattern=1 1;" vertex="1" parent="1">
          <mxGeometry x="930" y="120" width="301" height="650" as="geometry" />
        </mxCell>
        <mxCell id="z2o4I-8k37QD76k9BRlW-28" value="Application Load Balancer" style="text;html=1;strokeColor=none;fillColor=none;align=center;verticalAlign=middle;whiteSpace=wrap;rounded=0;" vertex="1" parent="1">
          <mxGeometry x="613" y="480" width="117" height="70" as="geometry" />
        </mxCell>
        <mxCell id="z2o4I-8k37QD76k9BRlW-36" value="" style="rounded=0;whiteSpace=wrap;html=1;" vertex="1" parent="1">
          <mxGeometry x="970" y="190" width="240" height="160" as="geometry" />
        </mxCell>
        <mxCell id="z2o4I-8k37QD76k9BRlW-37" value="" style="rounded=0;whiteSpace=wrap;html=1;" vertex="1" parent="1">
          <mxGeometry x="970" y="570" width="240" height="160" as="geometry" />
        </mxCell>
        <mxCell id="z2o4I-8k37QD76k9BRlW-42" value="Amazon DynamoDB" style="sketch=0;outlineConnect=0;dashed=0;verticalLabelPosition=middle;verticalAlign=bottom;align=center;html=1;whiteSpace=wrap;fontSize=10;fontStyle=1;spacing=3;shape=mxgraph.aws4.productIcon;prIcon=mxgraph.aws4.dynamodb;fillColor=#b0e3e6;strokeColor=#0e8088;" vertex="1" parent="1">
          <mxGeometry x="1310" y="400" width="100" height="120" as="geometry" />
        </mxCell>
        <mxCell id="z2o4I-8k37QD76k9BRlW-58" value="Public subnet" style="points=[[0,0],[0.25,0],[0.5,0],[0.75,0],[1,0],[1,0.25],[1,0.5],[1,0.75],[1,1],[0.75,1],[0.5,1],[0.25,1],[0,1],[0,0.75],[0,0.5],[0,0.25]];outlineConnect=0;gradientColor=none;html=1;whiteSpace=wrap;fontSize=12;fontStyle=0;container=1;pointerEvents=0;collapsible=0;recursiveResize=0;shape=mxgraph.aws4.group;grIcon=mxgraph.aws4.group_security_group;grStroke=0;strokeColor=#7AA116;fillColor=#F2F6E8;verticalAlign=top;align=left;spacingLeft=30;fontColor=#248814;dashed=0;" vertex="1" parent="1">
          <mxGeometry x="664" y="184" width="146" height="156" as="geometry" />
        </mxCell>
        <mxCell id="z2o4I-8k37QD76k9BRlW-30" value="" style="sketch=0;outlineConnect=0;fontColor=#232F3E;gradientColor=none;fillColor=#8C4FFF;strokeColor=none;dashed=0;verticalLabelPosition=bottom;verticalAlign=top;align=center;html=1;fontSize=12;fontStyle=0;aspect=fixed;pointerEvents=1;shape=mxgraph.aws4.nat_gateway;" vertex="1" parent="z2o4I-8k37QD76k9BRlW-58">
          <mxGeometry x="32" y="26" width="78" height="78" as="geometry" />
        </mxCell>
        <mxCell id="z2o4I-8k37QD76k9BRlW-31" value="NAT Gateway" style="text;html=1;strokeColor=none;fillColor=none;align=center;verticalAlign=middle;whiteSpace=wrap;rounded=0;" vertex="1" parent="1">
          <mxGeometry x="677" y="270" width="117" height="70" as="geometry" />
        </mxCell>
        <mxCell id="z2o4I-8k37QD76k9BRlW-67" value="Public subnet" style="points=[[0,0],[0.25,0],[0.5,0],[0.75,0],[1,0],[1,0.25],[1,0.5],[1,0.75],[1,1],[0.75,1],[0.5,1],[0.25,1],[0,1],[0,0.75],[0,0.5],[0,0.25]];outlineConnect=0;gradientColor=none;html=1;whiteSpace=wrap;fontSize=12;fontStyle=0;container=1;pointerEvents=0;collapsible=0;recursiveResize=0;shape=mxgraph.aws4.group;grIcon=mxgraph.aws4.group_security_group;grStroke=0;strokeColor=#7AA116;fillColor=#F2F6E8;verticalAlign=top;align=left;spacingLeft=30;fontColor=#248814;dashed=0;" vertex="1" parent="1">
          <mxGeometry x="670" y="585" width="146" height="163" as="geometry" />
        </mxCell>
        <mxCell id="z2o4I-8k37QD76k9BRlW-68" value="" style="sketch=0;outlineConnect=0;fontColor=#232F3E;gradientColor=none;fillColor=#8C4FFF;strokeColor=none;dashed=0;verticalLabelPosition=bottom;verticalAlign=top;align=center;html=1;fontSize=12;fontStyle=0;aspect=fixed;pointerEvents=1;shape=mxgraph.aws4.nat_gateway;" vertex="1" parent="z2o4I-8k37QD76k9BRlW-67">
          <mxGeometry x="32" y="26" width="78" height="78" as="geometry" />
        </mxCell>
        <mxCell id="z2o4I-8k37QD76k9BRlW-69" value="NAT Gateway" style="text;html=1;strokeColor=none;fillColor=none;align=center;verticalAlign=middle;whiteSpace=wrap;rounded=0;" vertex="1" parent="z2o4I-8k37QD76k9BRlW-67">
          <mxGeometry x="12.5" y="93" width="117" height="70" as="geometry" />
        </mxCell>
        <mxCell id="z2o4I-8k37QD76k9BRlW-70" value="VPC" style="sketch=0;outlineConnect=0;gradientColor=none;html=1;whiteSpace=wrap;fontSize=12;fontStyle=0;shape=mxgraph.aws4.group;grIcon=mxgraph.aws4.group_vpc;strokeColor=#879196;fillColor=none;verticalAlign=top;align=left;spacingLeft=30;fontColor=#879196;dashed=0;" vertex="1" parent="1">
          <mxGeometry x="601.5" y="110" width="660" height="670" as="geometry" />
        </mxCell>
        <mxCell id="z2o4I-8k37QD76k9BRlW-72" value="EC2 Auto Scaling" style="text;html=1;strokeColor=#b46504;fillColor=#fad7ac;align=center;verticalAlign=middle;whiteSpace=wrap;rounded=0;" vertex="1" parent="1">
          <mxGeometry x="1037" y="120" width="106" height="30" as="geometry" />
        </mxCell>
        <mxCell id="z2o4I-8k37QD76k9BRlW-73" value="" style="html=1;verticalLabelPosition=bottom;align=center;labelBackgroundColor=#ffffff;verticalAlign=top;strokeWidth=2;strokeColor=#0080F0;shadow=0;dashed=0;shape=mxgraph.ios7.icons.location;" vertex="1" parent="1">
          <mxGeometry x="340" y="100" width="24" height="30" as="geometry" />
        </mxCell>
        <mxCell id="z2o4I-8k37QD76k9BRlW-74" value="Região São Paulo" style="text;html=1;strokeColor=#10739e;fillColor=#b1ddf0;align=center;verticalAlign=middle;whiteSpace=wrap;rounded=0;" vertex="1" parent="1">
          <mxGeometry x="370" y="104" width="106" height="30" as="geometry" />
        </mxCell>
        <mxCell id="z2o4I-8k37QD76k9BRlW-78" value="Private subnet" style="points=[[0,0],[0.25,0],[0.5,0],[0.75,0],[1,0],[1,0.25],[1,0.5],[1,0.75],[1,1],[0.75,1],[0.5,1],[0.25,1],[0,1],[0,0.75],[0,0.5],[0,0.25]];outlineConnect=0;gradientColor=none;html=1;whiteSpace=wrap;fontSize=12;fontStyle=0;container=1;pointerEvents=0;collapsible=0;recursiveResize=0;shape=mxgraph.aws4.group;grIcon=mxgraph.aws4.group_security_group;grStroke=0;strokeColor=#00A4A6;fillColor=#E6F6F7;verticalAlign=top;align=left;spacingLeft=30;fontColor=#147EBA;dashed=0;" vertex="1" parent="1">
          <mxGeometry x="970" y="190" width="250" height="170" as="geometry" />
        </mxCell>
        <mxCell id="z2o4I-8k37QD76k9BRlW-39" value="" style="sketch=0;points=[[0,0,0],[0.25,0,0],[0.5,0,0],[0.75,0,0],[1,0,0],[0,1,0],[0.25,1,0],[0.5,1,0],[0.75,1,0],[1,1,0],[0,0.25,0],[0,0.5,0],[0,0.75,0],[1,0.25,0],[1,0.5,0],[1,0.75,0]];outlineConnect=0;fontColor=#232F3E;fillColor=#ED7100;strokeColor=#ffffff;dashed=0;verticalLabelPosition=bottom;verticalAlign=top;align=center;html=1;fontSize=12;fontStyle=0;aspect=fixed;shape=mxgraph.aws4.resourceIcon;resIcon=mxgraph.aws4.ec2;" vertex="1" parent="1">
          <mxGeometry x="1120" y="236" width="78" height="78" as="geometry" />
        </mxCell>
        <mxCell id="z2o4I-8k37QD76k9BRlW-38" value="" style="sketch=0;points=[[0,0,0],[0.25,0,0],[0.5,0,0],[0.75,0,0],[1,0,0],[0,1,0],[0.25,1,0],[0.5,1,0],[0.75,1,0],[1,1,0],[0,0.25,0],[0,0.5,0],[0,0.75,0],[1,0.25,0],[1,0.5,0],[1,0.75,0]];outlineConnect=0;fontColor=#232F3E;fillColor=#ED7100;strokeColor=#ffffff;dashed=0;verticalLabelPosition=bottom;verticalAlign=top;align=center;html=1;fontSize=12;fontStyle=0;aspect=fixed;shape=mxgraph.aws4.resourceIcon;resIcon=mxgraph.aws4.ec2;" vertex="1" parent="1">
          <mxGeometry x="990" y="236" width="78" height="78" as="geometry" />
        </mxCell>
        <mxCell id="z2o4I-8k37QD76k9BRlW-53" style="edgeStyle=orthogonalEdgeStyle;rounded=0;orthogonalLoop=1;jettySize=auto;html=1;dashed=1;backgroundOutline=0;flowAnimation=1;" edge="1" parent="1" source="z2o4I-8k37QD76k9BRlW-38" target="z2o4I-8k37QD76k9BRlW-42">
          <mxGeometry relative="1" as="geometry">
            <Array as="points">
              <mxPoint x="1070" y="275" />
              <mxPoint x="1070" y="210" />
              <mxPoint x="1360" y="210" />
            </Array>
          </mxGeometry>
        </mxCell>
        <mxCell id="z2o4I-8k37QD76k9BRlW-49" value="EC2" style="text;html=1;strokeColor=none;fillColor=none;align=center;verticalAlign=middle;whiteSpace=wrap;rounded=0;" vertex="1" parent="1">
          <mxGeometry x="983.5" y="190" width="117" height="70" as="geometry" />
        </mxCell>
        <mxCell id="z2o4I-8k37QD76k9BRlW-50" value="EC2" style="text;html=1;strokeColor=none;fillColor=none;align=center;verticalAlign=middle;whiteSpace=wrap;rounded=0;" vertex="1" parent="1">
          <mxGeometry x="1100.5" y="190" width="117" height="70" as="geometry" />
        </mxCell>
        <mxCell id="z2o4I-8k37QD76k9BRlW-45" style="edgeStyle=orthogonalEdgeStyle;rounded=0;orthogonalLoop=1;jettySize=auto;html=1;dashed=1;backgroundOutline=0;flowAnimation=1;" edge="1" parent="1" source="z2o4I-8k37QD76k9BRlW-20" target="z2o4I-8k37QD76k9BRlW-39">
          <mxGeometry relative="1" as="geometry">
            <Array as="points">
              <mxPoint x="1159" y="440" />
            </Array>
          </mxGeometry>
        </mxCell>
        <mxCell id="z2o4I-8k37QD76k9BRlW-43" style="edgeStyle=orthogonalEdgeStyle;rounded=0;orthogonalLoop=1;jettySize=auto;html=1;entryX=0.5;entryY=1;entryDx=0;entryDy=0;entryPerimeter=0;dashed=1;backgroundOutline=0;flowAnimation=1;" edge="1" parent="1" source="z2o4I-8k37QD76k9BRlW-20" target="z2o4I-8k37QD76k9BRlW-38">
          <mxGeometry relative="1" as="geometry">
            <Array as="points">
              <mxPoint x="1029" y="430" />
            </Array>
          </mxGeometry>
        </mxCell>
        <mxCell id="z2o4I-8k37QD76k9BRlW-54" style="edgeStyle=orthogonalEdgeStyle;rounded=0;orthogonalLoop=1;jettySize=auto;html=1;entryX=0.2;entryY=0;entryDx=0;entryDy=0;entryPerimeter=0;dashed=1;backgroundOutline=0;flowAnimation=1;" edge="1" parent="1" source="z2o4I-8k37QD76k9BRlW-39" target="z2o4I-8k37QD76k9BRlW-42">
          <mxGeometry relative="1" as="geometry" />
        </mxCell>
        <mxCell id="z2o4I-8k37QD76k9BRlW-87" value="Private subnet" style="points=[[0,0],[0.25,0],[0.5,0],[0.75,0],[1,0],[1,0.25],[1,0.5],[1,0.75],[1,1],[0.75,1],[0.5,1],[0.25,1],[0,1],[0,0.75],[0,0.5],[0,0.25]];outlineConnect=0;gradientColor=none;html=1;whiteSpace=wrap;fontSize=12;fontStyle=0;container=1;pointerEvents=0;collapsible=0;recursiveResize=0;shape=mxgraph.aws4.group;grIcon=mxgraph.aws4.group_security_group;grStroke=0;strokeColor=#00A4A6;fillColor=#E6F6F7;verticalAlign=top;align=left;spacingLeft=30;fontColor=#147EBA;dashed=0;" vertex="1" parent="1">
          <mxGeometry x="970" y="570" width="250" height="170" as="geometry" />
        </mxCell>
        <mxCell id="z2o4I-8k37QD76k9BRlW-56" style="edgeStyle=orthogonalEdgeStyle;rounded=0;orthogonalLoop=1;jettySize=auto;html=1;dashed=1;backgroundOutline=0;flowAnimation=1;" edge="1" parent="1" source="z2o4I-8k37QD76k9BRlW-40" target="z2o4I-8k37QD76k9BRlW-42">
          <mxGeometry relative="1" as="geometry">
            <Array as="points">
              <mxPoint x="1070" y="650" />
              <mxPoint x="1070" y="720" />
              <mxPoint x="1360" y="720" />
            </Array>
          </mxGeometry>
        </mxCell>
        <mxCell id="z2o4I-8k37QD76k9BRlW-40" value="" style="sketch=0;points=[[0,0,0],[0.25,0,0],[0.5,0,0],[0.75,0,0],[1,0,0],[0,1,0],[0.25,1,0],[0.5,1,0],[0.75,1,0],[1,1,0],[0,0.25,0],[0,0.5,0],[0,0.75,0],[1,0.25,0],[1,0.5,0],[1,0.75,0]];outlineConnect=0;fontColor=#232F3E;fillColor=#ED7100;strokeColor=#ffffff;dashed=0;verticalLabelPosition=bottom;verticalAlign=top;align=center;html=1;fontSize=12;fontStyle=0;aspect=fixed;shape=mxgraph.aws4.resourceIcon;resIcon=mxgraph.aws4.ec2;" vertex="1" parent="1">
          <mxGeometry x="990" y="611" width="78" height="78" as="geometry" />
        </mxCell>
        <mxCell id="z2o4I-8k37QD76k9BRlW-57" style="edgeStyle=orthogonalEdgeStyle;rounded=0;orthogonalLoop=1;jettySize=auto;html=1;dashed=1;backgroundOutline=0;flowAnimation=1;" edge="1" parent="1" source="z2o4I-8k37QD76k9BRlW-41" target="z2o4I-8k37QD76k9BRlW-42">
          <mxGeometry relative="1" as="geometry">
            <Array as="points">
              <mxPoint x="1330" y="650" />
            </Array>
          </mxGeometry>
        </mxCell>
        <mxCell id="z2o4I-8k37QD76k9BRlW-41" value="" style="sketch=0;points=[[0,0,0],[0.25,0,0],[0.5,0,0],[0.75,0,0],[1,0,0],[0,1,0],[0.25,1,0],[0.5,1,0],[0.75,1,0],[1,1,0],[0,0.25,0],[0,0.5,0],[0,0.75,0],[1,0.25,0],[1,0.5,0],[1,0.75,0]];outlineConnect=0;fontColor=#232F3E;fillColor=#ED7100;strokeColor=#ffffff;dashed=0;verticalLabelPosition=bottom;verticalAlign=top;align=center;html=1;fontSize=12;fontStyle=0;aspect=fixed;shape=mxgraph.aws4.resourceIcon;resIcon=mxgraph.aws4.ec2;" vertex="1" parent="1">
          <mxGeometry x="1120" y="611" width="78" height="78" as="geometry" />
        </mxCell>
        <mxCell id="z2o4I-8k37QD76k9BRlW-48" style="edgeStyle=orthogonalEdgeStyle;rounded=0;orthogonalLoop=1;jettySize=auto;html=1;dashed=1;backgroundOutline=0;flowAnimation=1;" edge="1" parent="1" source="z2o4I-8k37QD76k9BRlW-20" target="z2o4I-8k37QD76k9BRlW-40">
          <mxGeometry relative="1" as="geometry">
            <Array as="points">
              <mxPoint x="1029" y="470" />
            </Array>
          </mxGeometry>
        </mxCell>
        <mxCell id="z2o4I-8k37QD76k9BRlW-46" style="edgeStyle=orthogonalEdgeStyle;rounded=0;orthogonalLoop=1;jettySize=auto;html=1;dashed=1;backgroundOutline=0;flowAnimation=1;" edge="1" parent="1" source="z2o4I-8k37QD76k9BRlW-20" target="z2o4I-8k37QD76k9BRlW-41">
          <mxGeometry relative="1" as="geometry">
            <Array as="points">
              <mxPoint x="1159" y="460" />
            </Array>
          </mxGeometry>
        </mxCell>
        <mxCell id="z2o4I-8k37QD76k9BRlW-51" value="EC2" style="text;html=1;strokeColor=none;fillColor=none;align=center;verticalAlign=middle;whiteSpace=wrap;rounded=0;" vertex="1" parent="1">
          <mxGeometry x="970.5" y="678" width="117" height="70" as="geometry" />
        </mxCell>
        <mxCell id="z2o4I-8k37QD76k9BRlW-52" value="EC2" style="text;html=1;strokeColor=none;fillColor=none;align=center;verticalAlign=middle;whiteSpace=wrap;rounded=0;" vertex="1" parent="1">
          <mxGeometry x="1100.5" y="678" width="117" height="70" as="geometry" />
        </mxCell>
      </root>
    </mxGraphModel>
  </diagram>
</mxfile>
